<svg xmlns="http://www.w3.org/2000/svg" width="1200" height="630" viewBox="0 0 1200 630" role="img" aria-label="Nebula Wallet secure multichain wallet">
  <rect width="1200" height="630" fill="#1E1E1E"/>
  <g opacity=".18" stroke="#FFFFFF">
    <path d="M0 120H1200M0 240H1200M0 360H1200M0 480H1200"/>
    <path d="M120 0V630M240 0V630M360 0V630M480 0V630M600 0V630M720 0V630M840 0V630M960 0V630M1080 0V630"/>
  </g>
  <circle cx="850" cy="290" r="205" fill="none" stroke="#3FC2FF" stroke-opacity=".34" stroke-width="2"/>
  <circle cx="850" cy="290" r="132" fill="none" stroke="#3FC2FF" stroke-opacity=".22" stroke-width="2"/>
  <rect x="760" y="150" width="250" height="310" rx="12" fill="#171717" stroke="#FFFFFF" stroke-opacity=".18"/>
  <rect x="788" y="202" width="194" height="96" rx="10" fill="#26343A" stroke="#3FC2FF" stroke-opacity=".42"/>
  <text x="84" y="246" fill="#FFFFFF" font-family="Inter, Arial, sans-serif" font-size="96" font-weight="800">Nebula Wallet</text>
  <text x="88" y="318" fill="#A0A0A0" font-family="Inter, Arial, sans-serif" font-size="34">Secure multichain self-custody</text>
  <rect x="88" y="382" width="232" height="58" rx="29" fill="#3FC2FF"/>
  <text x="120" y="421" fill="#071219" font-family="Inter, Arial, sans-serif" font-size="22" font-weight="800">Download Wallet</text>
</svg>
